<svg width="43" height="50" viewBox="0 0 43 50" fill="none" xmlns="http://www.w3.org/2000/svg">
<path fill-rule="evenodd" clip-rule="evenodd" d="M17.5 3C16.9477 3 16.5 3.44772 16.5 4V5H14.5C13.3954 5 12.5 5.89543 12.5 7V19C12.5 20.1046 13.3954 21 14.5 21H28.5C29.6046 21 30.5 20.1046 30.5 19V7C30.5 5.89543 29.6046 5 28.5 5H26.5V4C26.5 3.44772 26.0523 3 25.5 3C24.9477 3 24.5 3.44772 24.5 4V5H18.5V4C18.5 3.44772 18.0523 3 17.5 3ZM28.5 7V10H14.5V7L28.5 7ZM14.5 12V19H28.5V12H14.5Z" fill="white"/>
<path d="M13.658 40.34H10.478L9.86801 42H9.12801L11.678 35.1H12.468L15.008 42H14.268L13.658 40.34ZM13.448 39.76L12.068 35.98L10.688 39.76H13.448ZM17.4214 37.74C17.5948 37.3733 17.8681 37.07 18.2414 36.83C18.6214 36.5833 19.0714 36.46 19.5914 36.46C20.0848 36.46 20.5281 36.5767 20.9214 36.81C21.3214 37.0367 21.6314 37.3633 21.8514 37.79C22.0781 38.21 22.1914 38.7 22.1914 39.26C22.1914 39.82 22.0781 40.3133 21.8514 40.74C21.6314 41.1667 21.3214 41.4967 20.9214 41.73C20.5281 41.9633 20.0848 42.08 19.5914 42.08C19.0781 42.08 18.6314 41.96 18.2514 41.72C17.8714 41.4733 17.5948 41.1667 17.4214 40.8V44.58H16.7314V36.54H17.4214V37.74ZM21.4814 39.26C21.4814 38.8067 21.3914 38.4167 21.2114 38.09C21.0381 37.7567 20.7981 37.5033 20.4914 37.33C20.1848 37.1567 19.8381 37.07 19.4514 37.07C19.0781 37.07 18.7348 37.16 18.4214 37.34C18.1148 37.52 17.8714 37.7767 17.6914 38.11C17.5114 38.4433 17.4214 38.83 17.4214 39.27C17.4214 39.71 17.5114 40.0967 17.6914 40.43C17.8714 40.7633 18.1148 41.02 18.4214 41.2C18.7348 41.38 19.0781 41.47 19.4514 41.47C19.8381 41.47 20.1848 41.3833 20.4914 41.21C20.7981 41.03 21.0381 40.7733 21.2114 40.44C21.3914 40.1 21.4814 39.7067 21.4814 39.26ZM24.7695 37.74C24.9428 37.3733 25.2162 37.07 25.5895 36.83C25.9695 36.5833 26.4195 36.46 26.9395 36.46C27.4328 36.46 27.8762 36.5767 28.2695 36.81C28.6695 37.0367 28.9795 37.3633 29.1995 37.79C29.4262 38.21 29.5395 38.7 29.5395 39.26C29.5395 39.82 29.4262 40.3133 29.1995 40.74C28.9795 41.1667 28.6695 41.4967 28.2695 41.73C27.8762 41.9633 27.4328 42.08 26.9395 42.08C26.4262 42.08 25.9795 41.96 25.5995 41.72C25.2195 41.4733 24.9428 41.1667 24.7695 40.8V44.58H24.0795V36.54H24.7695V37.74ZM28.8295 39.26C28.8295 38.8067 28.7395 38.4167 28.5595 38.09C28.3862 37.7567 28.1462 37.5033 27.8395 37.33C27.5328 37.1567 27.1862 37.07 26.7995 37.07C26.4262 37.07 26.0828 37.16 25.7695 37.34C25.4628 37.52 25.2195 37.7767 25.0395 38.11C24.8595 38.4433 24.7695 38.83 24.7695 39.27C24.7695 39.71 24.8595 40.0967 25.0395 40.43C25.2195 40.7633 25.4628 41.02 25.7695 41.2C26.0828 41.38 26.4262 41.47 26.7995 41.47C27.1862 41.47 27.5328 41.3833 27.8395 41.21C28.1462 41.03 28.3862 40.7733 28.5595 40.44C28.7395 40.1 28.8295 39.7067 28.8295 39.26ZM32.3375 37.13V40.52C32.3375 40.8533 32.4009 41.0833 32.5275 41.21C32.6542 41.3367 32.8775 41.4 33.1975 41.4H33.8375V42H33.0875C32.5942 42 32.2275 41.8867 31.9875 41.66C31.7475 41.4267 31.6275 41.0467 31.6275 40.52V37.13H30.8675V36.54H31.6275V35.17H32.3375V36.54H33.8375V37.13H32.3375Z" fill="white"/>
</svg>
