<svg width="43" height="50" viewBox="0 0 43 50" fill="none" xmlns="http://www.w3.org/2000/svg">
<path d="M19.5 12C19.5 12.8284 18.8284 13.5 18 13.5C17.1716 13.5 16.5 12.8284 16.5 12C16.5 11.1716 17.1716 10.5 18 10.5C18.8284 10.5 19.5 11.1716 19.5 12Z" fill="white"/>
<path d="M25 13.5C25.8284 13.5 26.5 12.8284 26.5 12C26.5 11.1716 25.8284 10.5 25 10.5C24.1716 10.5 23.5 11.1716 23.5 12C23.5 12.8284 24.1716 13.5 25 13.5Z" fill="white"/>
<path fill-rule="evenodd" clip-rule="evenodd" d="M11.5 12C11.5 6.47715 15.9772 2 21.5 2C27.0228 2 31.5 6.47715 31.5 12C31.5 17.5228 27.0228 22 21.5 22C19.6104 22 17.8406 21.475 16.3317 20.5624L13.2998 21.4542C12.5328 21.6798 11.8202 20.9672 12.0458 20.2002L12.9376 17.1683C12.025 15.6594 11.5 13.8896 11.5 12ZM21.5 4C17.0817 4 13.5 7.58172 13.5 12C13.5 13.5769 13.9552 15.0444 14.741 16.2818C14.9677 16.6389 15.0455 17.0892 14.9183 17.5217L14.4767 19.0233L15.9783 18.5817C16.4108 18.4545 16.8611 18.5323 17.2182 18.759C18.4556 19.5448 19.9231 20 21.5 20C25.9183 20 29.5 16.4183 29.5 12C29.5 7.58172 25.9183 4 21.5 4Z" fill="white"/>
<path d="M8.90227 38.5C8.90227 37.8133 9.05227 37.2 9.35227 36.66C9.65227 36.1133 10.0623 35.69 10.5823 35.39C11.1023 35.0833 11.6823 34.93 12.3223 34.93C13.1023 34.93 13.7689 35.1167 14.3223 35.49C14.8823 35.8567 15.2889 36.3767 15.5423 37.05H14.7223C14.5223 36.5767 14.2156 36.2067 13.8023 35.94C13.3956 35.6733 12.9023 35.54 12.3223 35.54C11.8089 35.54 11.3456 35.66 10.9323 35.9C10.5256 36.14 10.2056 36.4867 9.97227 36.94C9.73893 37.3867 9.62227 37.9067 9.62227 38.5C9.62227 39.0933 9.73893 39.6133 9.97227 40.06C10.2056 40.5067 10.5256 40.85 10.9323 41.09C11.3456 41.33 11.8089 41.45 12.3223 41.45C12.9023 41.45 13.3956 41.32 13.8023 41.06C14.2156 40.7933 14.5223 40.4267 14.7223 39.96H15.5423C15.2889 40.6267 14.8823 41.1433 14.3223 41.51C13.7623 41.8767 13.0956 42.06 12.3223 42.06C11.6823 42.06 11.1023 41.91 10.5823 41.61C10.0623 41.3033 9.65227 40.88 9.35227 40.34C9.05227 39.8 8.90227 39.1867 8.90227 38.5ZM20.1371 36.44C20.5504 36.44 20.9204 36.5267 21.2471 36.7C21.5804 36.8733 21.8404 37.14 22.0271 37.5C22.2204 37.8533 22.3171 38.2867 22.3171 38.8V42H21.6271V38.88C21.6271 38.2867 21.4771 37.8333 21.1771 37.52C20.8838 37.2067 20.4804 37.05 19.9671 37.05C19.4404 37.05 19.0204 37.2167 18.7071 37.55C18.3938 37.8833 18.2371 38.3733 18.2371 39.02V42H17.5371V34.6H18.2371V37.47C18.4104 37.1433 18.6638 36.89 18.9971 36.71C19.3371 36.53 19.7171 36.44 20.1371 36.44ZM24.1452 39.26C24.1452 38.7 24.2552 38.21 24.4752 37.79C24.7019 37.3633 25.0119 37.0367 25.4052 36.81C25.8052 36.5767 26.2552 36.46 26.7552 36.46C27.2752 36.46 27.7219 36.58 28.0952 36.82C28.4752 37.06 28.7486 37.3667 28.9152 37.74V36.54H29.6152V42H28.9152V40.79C28.7419 41.1633 28.4652 41.4733 28.0852 41.72C27.7119 41.96 27.2652 42.08 26.7452 42.08C26.2519 42.08 25.8052 41.9633 25.4052 41.73C25.0119 41.4967 24.7019 41.1667 24.4752 40.74C24.2552 40.3133 24.1452 39.82 24.1452 39.26ZM28.9152 39.27C28.9152 38.83 28.8252 38.4433 28.6452 38.11C28.4652 37.7767 28.2186 37.52 27.9052 37.34C27.5986 37.16 27.2586 37.07 26.8852 37.07C26.4986 37.07 26.1519 37.1567 25.8452 37.33C25.5386 37.5033 25.2952 37.7567 25.1152 38.09C24.9419 38.4167 24.8552 38.8067 24.8552 39.26C24.8552 39.7067 24.9419 40.1 25.1152 40.44C25.2952 40.7733 25.5386 41.03 25.8452 41.21C26.1519 41.3833 26.4986 41.47 26.8852 41.47C27.2586 41.47 27.5986 41.38 27.9052 41.2C28.2186 41.02 28.4652 40.7633 28.6452 40.43C28.8252 40.0967 28.9152 39.71 28.9152 39.27ZM32.7233 37.13V40.52C32.7233 40.8533 32.7866 41.0833 32.9133 41.21C33.0399 41.3367 33.2633 41.4 33.5833 41.4H34.2233V42H33.4733C32.9799 42 32.6133 41.8867 32.3733 41.66C32.1333 41.4267 32.0133 41.0467 32.0133 40.52V37.13H31.2533V36.54H32.0133V35.17H32.7233V36.54H34.2233V37.13H32.7233Z" fill="white"/>
</svg>
