<svg width="16" height="16" viewBox="0 0 16 16" fill="none" xmlns="http://www.w3.org/2000/svg">
<path fill-rule="evenodd" clip-rule="evenodd" d="M7.99992 1.33301C4.31802 1.33301 1.33325 4.31778 1.33325 7.99967C1.33325 11.6816 4.31802 14.6663 7.99992 14.6663C11.6818 14.6663 14.6666 11.6816 14.6666 7.99967C14.6666 4.31778 11.6818 1.33301 7.99992 1.33301ZM11.2996 6.53006C11.56 6.26971 11.56 5.8476 11.2996 5.58725C11.0393 5.3269 10.6172 5.3269 10.3568 5.58725L7.05701 8.88708L5.64279 7.47286C5.38245 7.21251 4.96034 7.21251 4.69999 7.47286C4.43964 7.73321 4.43964 8.15532 4.69999 8.41567L6.53846 10.2542C6.82485 10.5405 7.28917 10.5405 7.57555 10.2542L11.2996 6.53006Z" fill="#0E8971"/>
</svg>
