<svg width="86" height="87" viewBox="0 0 86 87" fill="none" xmlns="http://www.w3.org/2000/svg">
<g filter="url(#filter0_d_821_850)">
<rect x="11" y="11" width="60" height="60" rx="30" fill="url(#paint0_radial_821_850)"/>
<rect x="11" y="11" width="60" height="60" rx="30" fill="url(#paint1_radial_821_850)"/>
<rect x="11" y="11" width="60" height="60" rx="30" fill="url(#paint2_radial_821_850)"/>
<rect x="82" y="30" width="60" height="60" rx="30" transform="rotate(120 82 30)" fill="url(#paint3_radial_821_850)"/>
<path fill-rule="evenodd" clip-rule="evenodd" d="M43.0007 43.2687C43.0007 41.0797 44.0682 39.0283 45.8609 37.7723L50.4223 34.5765C51.0388 34.1445 51.2097 33.3059 50.8115 32.6671C50.3818 31.9781 49.462 31.7906 48.7969 32.2565L44.908 34.9812C42.8699 36.4092 40.1561 36.4092 38.118 34.9812L34.2292 32.2565C33.5641 31.7906 32.6442 31.9781 32.2146 32.6671C31.8164 33.3059 31.9873 34.1445 32.6038 34.5765L37.4682 37.9847C39.2298 39.2188 40.2787 41.2345 40.2787 43.3854V48.6188C40.2787 49.3705 40.888 49.9798 41.6397 49.9798C42.3913 49.9798 43.0007 49.3705 43.0007 48.6188V43.2687Z" fill="white"/>
</g>
<defs>
<filter id="filter0_d_821_850" x="5" y="6.97559" width="80.0242" height="80.0244" filterUnits="userSpaceOnUse" color-interpolation-filters="sRGB">
<feFlood flood-opacity="0" result="BackgroundImageFix"/>
<feColorMatrix in="SourceAlpha" type="matrix" values="0 0 0 0 0 0 0 0 0 0 0 0 0 0 0 0 0 0 127 0" result="hardAlpha"/>
<feOffset dx="4" dy="6"/>
<feGaussianBlur stdDeviation="5"/>
<feComposite in2="hardAlpha" operator="out"/>
<feColorMatrix type="matrix" values="0 0 0 0 0 0 0 0 0 0 0 0 0 0 0 0 0 0 0.22 0"/>
<feBlend mode="normal" in2="BackgroundImageFix" result="effect1_dropShadow_821_850"/>
<feBlend mode="normal" in="SourceGraphic" in2="effect1_dropShadow_821_850" result="shape"/>
</filter>
<radialGradient id="paint0_radial_821_850" cx="0" cy="0" r="1" gradientUnits="userSpaceOnUse" gradientTransform="translate(33 33) rotate(66.9606) scale(47.2705)">
<stop offset="0.426704" stop-color="#111111"/>
<stop offset="0.795" stop-color="#3829FF"/>
<stop offset="1" stop-color="#5A0099"/>
</radialGradient>
<radialGradient id="paint1_radial_821_850" cx="0" cy="0" r="1" gradientUnits="userSpaceOnUse" gradientTransform="translate(35 38.5) rotate(62.6761) scale(33.7676)">
<stop offset="0.507991" stop-color="#5A0099" stop-opacity="0"/>
<stop offset="1" stop-color="#9500FF"/>
</radialGradient>
<radialGradient id="paint2_radial_821_850" cx="0" cy="0" r="1" gradientUnits="userSpaceOnUse" gradientTransform="translate(37 41) rotate(-4.08561) scale(35.0892 34.603)">
<stop offset="0.856051" stop-color="#5A0099" stop-opacity="0"/>
<stop offset="1" stop-color="white"/>
</radialGradient>
<radialGradient id="paint3_radial_821_850" cx="0" cy="0" r="1" gradientUnits="userSpaceOnUse" gradientTransform="translate(108 60) rotate(53.9726) scale(34.0037)">
<stop offset="0.821585" stop-color="#5A0099" stop-opacity="0"/>
<stop offset="1" stop-color="white"/>
</radialGradient>
</defs>
</svg>
