<svg width="26" height="26" viewBox="0 0 26 26" fill="none" xmlns="http://www.w3.org/2000/svg">
<path fill-rule="evenodd" clip-rule="evenodd" d="M16.25 3.25C15.0534 3.25 14.0833 4.22005 14.0833 5.41667V9.75C14.0833 10.9466 15.0534 11.9167 16.25 11.9167H20.5833C21.78 11.9167 22.75 10.9466 22.75 9.75V5.41667C22.75 4.22005 21.78 3.25 20.5833 3.25H16.25ZM16.25 5.41667H20.5833V9.75H16.25V5.41667Z" fill="#111111"/>
<path fill-rule="evenodd" clip-rule="evenodd" d="M5.41667 3.25C4.22005 3.25 3.25 4.22005 3.25 5.41667V9.75C3.25 10.9466 4.22005 11.9167 5.41667 11.9167H9.75C10.9466 11.9167 11.9167 10.9466 11.9167 9.75V5.41667C11.9167 4.22005 10.9466 3.25 9.75 3.25H5.41667ZM5.41667 5.41667H9.75V9.75H5.41667V5.41667Z" fill="#111111"/>
<path fill-rule="evenodd" clip-rule="evenodd" d="M3.25 16.25C3.25 15.0534 4.22005 14.0833 5.41667 14.0833H9.75C10.9466 14.0833 11.9167 15.0534 11.9167 16.25V20.5833C11.9167 21.7799 10.9466 22.75 9.75 22.75H5.41667C4.22005 22.75 3.25 21.7799 3.25 20.5833V16.25ZM9.75 16.25H5.41667V20.5833H9.75V16.25Z" fill="#111111"/>
<path fill-rule="evenodd" clip-rule="evenodd" d="M16.25 14.0833C15.0534 14.0833 14.0833 15.0534 14.0833 16.25V20.5833C14.0833 21.7799 15.0534 22.75 16.25 22.75H20.5833C21.78 22.75 22.75 21.7799 22.75 20.5833V16.25C22.75 15.0534 21.78 14.0833 20.5833 14.0833H16.25ZM16.25 16.25H20.5833V20.5833H16.25V16.25Z" fill="#111111"/>
</svg>
