<svg width="365" height="26" viewBox="0 0 365 26" fill="none" xmlns="http://www.w3.org/2000/svg">
<path fill-rule="evenodd" clip-rule="evenodd" d="M304.375 2.1665C299.289 2.1665 295.167 6.28922 295.167 11.3748C295.167 16.4605 299.289 20.5832 304.375 20.5832C306.528 20.5832 308.508 19.8446 310.075 18.6072L314.032 22.5638C314.455 22.9869 315.141 22.9869 315.564 22.5638C315.987 22.1408 315.987 21.4548 315.564 21.0318L311.607 17.0751C312.845 15.5072 313.583 13.5273 313.583 11.3748C313.583 6.28922 309.461 2.1665 304.375 2.1665ZM297.333 11.3748C297.333 7.48583 300.486 4.33317 304.375 4.33317C308.264 4.33317 311.417 7.48583 311.417 11.3748C311.417 15.2638 308.264 18.4165 304.375 18.4165C300.486 18.4165 297.333 15.2638 297.333 11.3748Z" fill="#111111"/>
<path fill-rule="evenodd" clip-rule="evenodd" d="M16.25 3.25C15.0534 3.25 14.0833 4.22005 14.0833 5.41667V9.75C14.0833 10.9466 15.0534 11.9167 16.25 11.9167H20.5833C21.78 11.9167 22.75 10.9466 22.75 9.75V5.41667C22.75 4.22005 21.78 3.25 20.5833 3.25H16.25ZM16.25 5.41667H20.5833V9.75H16.25V5.41667Z" fill="#111111"/>
<path fill-rule="evenodd" clip-rule="evenodd" d="M5.41667 3.25C4.22005 3.25 3.25 4.22005 3.25 5.41667V9.75C3.25 10.9466 4.22005 11.9167 5.41667 11.9167H9.75C10.9466 11.9167 11.9167 10.9466 11.9167 9.75V5.41667C11.9167 4.22005 10.9466 3.25 9.75 3.25H5.41667ZM5.41667 5.41667H9.75V9.75H5.41667V5.41667Z" fill="#111111"/>
<path fill-rule="evenodd" clip-rule="evenodd" d="M3.25 16.25C3.25 15.0534 4.22005 14.0833 5.41667 14.0833H9.75C10.9466 14.0833 11.9167 15.0534 11.9167 16.25V20.5833C11.9167 21.7799 10.9466 22.75 9.75 22.75H5.41667C4.22005 22.75 3.25 21.7799 3.25 20.5833V16.25ZM9.75 16.25H5.41667V20.5833H9.75V16.25Z" fill="#111111"/>
<path fill-rule="evenodd" clip-rule="evenodd" d="M16.25 14.0833C15.0534 14.0833 14.0833 15.0534 14.0833 16.25V20.5833C14.0833 21.7799 15.0534 22.75 16.25 22.75H20.5833C21.78 22.75 22.75 21.7799 22.75 20.5833V16.25C22.75 15.0534 21.78 14.0833 20.5833 14.0833H16.25ZM16.25 16.25H20.5833V20.5833H16.25V16.25Z" fill="#111111"/>
<path fill-rule="evenodd" clip-rule="evenodd" d="M352.419 3C348.746 3 346.74 4.56439 345.714 6.27373C345.222 7.09445 344.979 7.90671 344.859 8.50823C344.799 8.81089 344.768 9.06609 344.752 9.25069C344.744 9.34318 344.74 9.41851 344.738 9.47385C344.736 9.50153 344.736 9.52428 344.736 9.54172L344.735 9.56389L344.735 9.57193L344.735 9.57518L344.735 9.5766C344.735 9.57726 344.735 9.5779 345.785 9.5779H344.735V14.8576L343.195 17.938C342.589 19.1509 343.47 20.5779 344.826 20.5779H360.011C361.367 20.5779 362.249 19.1509 361.642 17.938L360.102 14.8576V9.5779H359.052C360.102 9.5779 360.102 9.57726 360.102 9.5766L360.102 9.57518L360.102 9.57193L360.102 9.56389L360.102 9.54172C360.101 9.52428 360.101 9.50153 360.1 9.47385C360.097 9.41851 360.093 9.34318 360.085 9.25069C360.069 9.06609 360.038 8.81089 359.978 8.50823C359.858 7.90671 359.616 7.09445 359.123 6.27373C358.098 4.56439 356.091 3 352.419 3ZM346.836 14.9229V9.58267L346.836 9.58237L346.836 9.5578C346.837 9.53217 346.84 9.48874 346.845 9.43008C346.855 9.31238 346.876 9.13574 346.919 8.92018C347.006 8.48527 347.178 7.91562 347.515 7.35443C348.148 6.29994 349.458 5.10051 352.419 5.10051C355.379 5.10051 356.689 6.29994 357.322 7.35443C357.659 7.91562 357.831 8.48527 357.918 8.92018C357.961 9.13574 357.982 9.31238 357.992 9.43008C357.997 9.48874 358 9.53217 358.001 9.5578L358.001 9.58237L358.001 9.58269V14.9229C358.001 15.206 358.067 15.4853 358.194 15.7386L359.563 18.4774H345.274L346.643 15.7386C346.77 15.4853 346.836 15.206 346.836 14.9229ZM355.735 21.7389H349.102C349.102 22.9601 350.092 23.95 351.313 23.95H353.524C354.745 23.95 355.735 22.9601 355.735 21.7389Z" fill="#111111"/>
</svg>
