<svg width="174" height="180" viewBox="0 0 174 180" fill="none" xmlns="http://www.w3.org/2000/svg">
<rect width="174" height="180" rx="20" fill="#6054FF"/>
<mask id="mask0_560_7476" style="mask-type:alpha" maskUnits="userSpaceOnUse" x="0" y="0" width="174" height="180">
<rect width="174" height="180" rx="20" fill="#161066"/>
</mask>
<g mask="url(#mask0_560_7476)">
<path d="M26 97.0002C17 85.5002 11.5 107.5 -2 107.5V184H175V73C173.5 67 168.5 60 161 60C147.5 60 157 94 137.5 94C122.897 94 125.5 80.5002 109 80.5002C92.5 80.5002 95.3781 116.996 89 125.5C81.5 135.5 68.5 136 63.5 125.5C58.1215 114.205 60 110 55.5 110C51.5 110 54.5 123 44 123C33.5 123 35.3874 108.995 26 97.0002Z" fill="url(#paint0_linear_560_7476)"/>
<path d="M-2 107.5C11.5 107.5 17 85.5002 26 97.0002C35.3874 108.995 33.5 123 44 123C54.5 123 51.5 110 55.5 110C60 110 58.1215 114.205 63.5 125.5C68.5 136 81.5 135.5 89 125.5C95.3781 116.996 92.5 80.5002 109 80.5002C125.5 80.5002 122.897 94 137.5 94C157 94 147.5 60 161 60C168.5 60 173.5 67 175 73" stroke="#FAF3EC"/>
<path d="M19.668 15.08V23H18.372V15.08H19.668ZM14.46 15.08V23H13.176V15.08H14.46ZM19.02 18.44V19.544H13.824V18.44H19.02ZM24.3899 23.12C23.7899 23.12 23.2619 22.996 22.8059 22.748C22.3499 22.5 21.9939 22.144 21.7379 21.68C21.4899 21.208 21.3659 20.648 21.3659 20C21.3659 19.352 21.4899 18.796 21.7379 18.332C21.9939 17.86 22.3459 17.5 22.7939 17.252C23.2419 17.004 23.7499 16.88 24.3179 16.88C24.9019 16.88 25.3979 17 25.8059 17.24C26.2139 17.48 26.5259 17.808 26.7419 18.224C26.9579 18.64 27.0659 19.112 27.0659 19.64C27.0659 19.784 27.0619 19.92 27.0539 20.048C27.0459 20.176 27.0339 20.288 27.0179 20.384H22.1939V19.4H26.4539L25.8179 19.592C25.8179 19.048 25.6819 18.632 25.4099 18.344C25.1379 18.048 24.7659 17.9 24.2939 17.9C23.9499 17.9 23.6499 17.98 23.3939 18.14C23.1379 18.3 22.9419 18.54 22.8059 18.86C22.6699 19.172 22.6019 19.556 22.6019 20.012C22.6019 20.46 22.6739 20.84 22.8179 21.152C22.9619 21.464 23.1659 21.7 23.4299 21.86C23.6939 22.02 24.0059 22.1 24.3659 22.1C24.7659 22.1 25.0899 22.024 25.3379 21.872C25.5859 21.72 25.7819 21.508 25.9259 21.236L26.9459 21.716C26.8019 22.004 26.6059 22.256 26.3579 22.472C26.1179 22.68 25.8299 22.84 25.4939 22.952C25.1579 23.064 24.7899 23.12 24.3899 23.12ZM32.1554 19.148C32.1554 18.748 32.0434 18.44 31.8194 18.224C31.6034 18 31.3034 17.888 30.9194 17.888C30.5594 17.888 30.2514 17.972 29.9954 18.14C29.7394 18.308 29.5514 18.58 29.4314 18.956L28.3514 18.5C28.5034 18.012 28.7994 17.62 29.2394 17.324C29.6874 17.028 30.2634 16.88 30.9674 16.88C31.4474 16.88 31.8714 16.96 32.2394 17.12C32.6074 17.272 32.8954 17.504 33.1034 17.816C33.3194 18.128 33.4274 18.528 33.4274 19.016V21.692C33.4274 21.988 33.5754 22.136 33.8714 22.136C34.0154 22.136 34.1554 22.116 34.2914 22.076L34.2194 22.964C34.0354 23.052 33.8034 23.096 33.5234 23.096C33.2674 23.096 33.0354 23.052 32.8274 22.964C32.6274 22.868 32.4674 22.728 32.3474 22.544C32.2354 22.352 32.1794 22.116 32.1794 21.836V21.752L32.4434 21.74C32.3714 22.052 32.2234 22.312 31.9994 22.52C31.7754 22.72 31.5154 22.872 31.2194 22.976C30.9234 23.072 30.6234 23.12 30.3194 23.12C29.9434 23.12 29.6034 23.06 29.2994 22.94C29.0034 22.82 28.7674 22.64 28.5914 22.4C28.4234 22.152 28.3394 21.848 28.3394 21.488C28.3394 21.04 28.4834 20.672 28.7714 20.384C29.0674 20.096 29.4834 19.9 30.0194 19.796L32.3474 19.34L32.3354 20.24L30.6434 20.588C30.3074 20.652 30.0554 20.744 29.8874 20.864C29.7194 20.984 29.6354 21.16 29.6354 21.392C29.6354 21.616 29.7194 21.796 29.8874 21.932C30.0634 22.06 30.2954 22.124 30.5834 22.124C30.7834 22.124 30.9754 22.1 31.1594 22.052C31.3514 22.004 31.5234 21.928 31.6754 21.824C31.8274 21.712 31.9434 21.572 32.0234 21.404C32.1114 21.228 32.1554 21.02 32.1554 20.78V19.148ZM35.5312 23V17H36.6232L36.7432 18.08C36.9032 17.688 37.1392 17.392 37.4512 17.192C37.7712 16.984 38.1632 16.88 38.6272 16.88C38.7472 16.88 38.8672 16.892 38.9872 16.916C39.1072 16.932 39.2072 16.96 39.2872 17L39.1072 18.128C39.0192 18.096 38.9192 18.072 38.8072 18.056C38.7032 18.032 38.5592 18.02 38.3752 18.02C38.1272 18.02 37.8832 18.088 37.6432 18.224C37.4032 18.352 37.2032 18.548 37.0432 18.812C36.8912 19.076 36.8152 19.412 36.8152 19.82V23H35.5312ZM41.9589 15.236V21.2C41.9589 21.496 42.0349 21.712 42.1869 21.848C42.3469 21.984 42.5589 22.052 42.8229 22.052C43.0389 22.052 43.2269 22.02 43.3869 21.956C43.5469 21.884 43.6949 21.788 43.8309 21.668L44.1189 22.604C43.9349 22.764 43.7069 22.892 43.4349 22.988C43.1709 23.076 42.8749 23.12 42.5469 23.12C42.2029 23.12 41.8869 23.064 41.5989 22.952C41.3109 22.84 41.0869 22.66 40.9269 22.412C40.7669 22.156 40.6829 21.824 40.6749 21.416V15.596L41.9589 15.236ZM44.0229 17V18.008H39.5229V17H44.0229ZM55.8672 15.08V23H54.5712V15.08H55.8672ZM50.6592 15.08V23H49.3752V15.08H50.6592ZM55.2192 18.44V19.544H50.0232V18.44H55.2192ZM60.5891 23.12C59.9891 23.12 59.4611 22.996 59.0051 22.748C58.5491 22.5 58.1931 22.144 57.9371 21.68C57.6891 21.208 57.5651 20.648 57.5651 20C57.5651 19.352 57.6891 18.796 57.9371 18.332C58.1931 17.86 58.5451 17.5 58.9931 17.252C59.4411 17.004 59.9491 16.88 60.5171 16.88C61.1011 16.88 61.5971 17 62.0051 17.24C62.4131 17.48 62.7251 17.808 62.9411 18.224C63.1571 18.64 63.2651 19.112 63.2651 19.64C63.2651 19.784 63.2611 19.92 63.2531 20.048C63.2451 20.176 63.2331 20.288 63.2171 20.384H58.3931V19.4H62.6531L62.0171 19.592C62.0171 19.048 61.8811 18.632 61.6091 18.344C61.3371 18.048 60.9651 17.9 60.4931 17.9C60.1491 17.9 59.8491 17.98 59.5931 18.14C59.3371 18.3 59.1411 18.54 59.0051 18.86C58.8691 19.172 58.8011 19.556 58.8011 20.012C58.8011 20.46 58.8731 20.84 59.0171 21.152C59.1611 21.464 59.3651 21.7 59.6291 21.86C59.8931 22.02 60.2051 22.1 60.5651 22.1C60.9651 22.1 61.2891 22.024 61.5371 21.872C61.7851 21.72 61.9811 21.508 62.1251 21.236L63.1451 21.716C63.0011 22.004 62.8051 22.256 62.5571 22.472C62.3171 22.68 62.0291 22.84 61.6931 22.952C61.3571 23.064 60.9891 23.12 60.5891 23.12ZM68.3546 19.148C68.3546 18.748 68.2426 18.44 68.0186 18.224C67.8026 18 67.5026 17.888 67.1186 17.888C66.7586 17.888 66.4506 17.972 66.1946 18.14C65.9386 18.308 65.7506 18.58 65.6306 18.956L64.5506 18.5C64.7026 18.012 64.9986 17.62 65.4386 17.324C65.8866 17.028 66.4626 16.88 67.1666 16.88C67.6466 16.88 68.0706 16.96 68.4386 17.12C68.8066 17.272 69.0946 17.504 69.3026 17.816C69.5186 18.128 69.6266 18.528 69.6266 19.016V21.692C69.6266 21.988 69.7746 22.136 70.0706 22.136C70.2146 22.136 70.3546 22.116 70.4906 22.076L70.4186 22.964C70.2346 23.052 70.0026 23.096 69.7226 23.096C69.4666 23.096 69.2346 23.052 69.0266 22.964C68.8266 22.868 68.6666 22.728 68.5466 22.544C68.4346 22.352 68.3786 22.116 68.3786 21.836V21.752L68.6426 21.74C68.5706 22.052 68.4226 22.312 68.1986 22.52C67.9746 22.72 67.7146 22.872 67.4186 22.976C67.1226 23.072 66.8226 23.12 66.5186 23.12C66.1426 23.12 65.8026 23.06 65.4986 22.94C65.2026 22.82 64.9666 22.64 64.7906 22.4C64.6226 22.152 64.5386 21.848 64.5386 21.488C64.5386 21.04 64.6826 20.672 64.9706 20.384C65.2666 20.096 65.6826 19.9 66.2186 19.796L68.5466 19.34L68.5346 20.24L66.8426 20.588C66.5066 20.652 66.2546 20.744 66.0866 20.864C65.9186 20.984 65.8346 21.16 65.8346 21.392C65.8346 21.616 65.9186 21.796 66.0866 21.932C66.2626 22.06 66.4946 22.124 66.7826 22.124C66.9826 22.124 67.1746 22.1 67.3586 22.052C67.5506 22.004 67.7226 21.928 67.8746 21.824C68.0266 21.712 68.1426 21.572 68.2226 21.404C68.3106 21.228 68.3546 21.02 68.3546 20.78V19.148ZM72.9784 14.3V21.32C72.9784 21.616 73.0304 21.82 73.1344 21.932C73.2384 22.044 73.4104 22.1 73.6504 22.1C73.7944 22.1 73.9144 22.092 74.0104 22.076C74.1144 22.052 74.2424 22.012 74.3944 21.956L74.2504 22.916C74.1144 22.98 73.9584 23.028 73.7824 23.06C73.6064 23.1 73.4304 23.12 73.2544 23.12C72.7184 23.12 72.3224 22.984 72.0664 22.712C71.8184 22.432 71.6944 22.004 71.6944 21.428V14.3H72.9784ZM76.998 15.236V21.2C76.998 21.496 77.074 21.712 77.226 21.848C77.386 21.984 77.598 22.052 77.862 22.052C78.078 22.052 78.266 22.02 78.426 21.956C78.586 21.884 78.734 21.788 78.87 21.668L79.158 22.604C78.974 22.764 78.746 22.892 78.474 22.988C78.21 23.076 77.914 23.12 77.586 23.12C77.242 23.12 76.926 23.064 76.638 22.952C76.35 22.84 76.126 22.66 75.966 22.412C75.806 22.156 75.722 21.824 75.714 21.416V15.596L76.998 15.236ZM79.062 17V18.008H74.562V17H79.062ZM80.3788 23V14.3H81.6628V17.96C81.8628 17.584 82.1308 17.312 82.4668 17.144C82.8108 16.968 83.1908 16.88 83.6068 16.88C84.0308 16.88 84.4108 16.964 84.7468 17.132C85.0908 17.292 85.3628 17.536 85.5628 17.864C85.7628 18.192 85.8628 18.608 85.8628 19.112V23H84.5788V19.52C84.5788 18.928 84.4548 18.516 84.2068 18.284C83.9668 18.052 83.6628 17.936 83.2948 17.936C83.0388 17.936 82.7828 18 82.5268 18.128C82.2788 18.248 82.0708 18.448 81.9028 18.728C81.7428 19 81.6628 19.368 81.6628 19.832V23H80.3788Z" fill="white"/>
<path d="M13.296 167V159.08H16.116C17.052 159.08 17.736 159.276 18.168 159.668C18.6 160.06 18.816 160.592 18.816 161.264C18.816 161.664 18.7 162.028 18.468 162.356C18.236 162.676 17.908 162.88 17.484 162.968V162.98C17.956 163.068 18.328 163.284 18.6 163.628C18.88 163.964 19.02 164.348 19.02 164.78C19.02 165.452 18.768 165.992 18.264 166.4C17.76 166.8 17.04 167 16.104 167H13.296ZM14.256 166.1H16.332C16.9 166.1 17.32 165.984 17.592 165.752C17.872 165.52 18.012 165.196 18.012 164.78C18.012 164.356 17.872 164.032 17.592 163.808C17.32 163.576 16.9 163.46 16.332 163.46H14.256V166.1ZM14.256 162.56H16.128C17.248 162.56 17.808 162.128 17.808 161.264C17.808 160.408 17.248 159.98 16.128 159.98H14.256V162.56ZM23.9318 159.08C24.4678 159.08 24.9318 159.18 25.3238 159.38C25.7238 159.572 26.0358 159.848 26.2598 160.208C26.4838 160.568 26.5958 160.996 26.5958 161.492C26.5958 161.988 26.4838 162.416 26.2598 162.776C26.0358 163.136 25.7238 163.416 25.3238 163.616C24.9318 163.808 24.4678 163.904 23.9318 163.904H22.0958V167H21.1358V159.08H23.9318ZM23.7878 163.004C24.4118 163.004 24.8678 162.876 25.1558 162.62C25.4438 162.356 25.5878 161.98 25.5878 161.492C25.5878 160.996 25.4438 160.62 25.1558 160.364C24.8678 160.108 24.4118 159.98 23.7878 159.98H22.0958V163.004H23.7878ZM36.1161 159.08V167H35.2041V162.02L35.3121 159.932H35.3001L32.6961 167H31.8801L29.2761 159.932H29.2641L29.3721 162.02V167H28.4601V159.08H29.9361L31.6761 163.892L32.2761 165.872H32.3001L32.9121 163.904L34.6401 159.08H36.1161Z" fill="#D7D4FF"/>
<path d="M16.116 139.62C16.9373 139.62 17.628 139.811 18.188 140.194C18.748 140.567 19.168 141.109 19.448 141.818C19.7373 142.518 19.882 143.363 19.882 144.352C19.882 145.444 19.728 146.345 19.42 147.054C19.112 147.754 18.6733 148.277 18.104 148.622C17.544 148.967 16.886 149.14 16.13 149.14C15.3367 149.14 14.6507 148.972 14.072 148.636C13.5027 148.3 13.0733 147.787 12.784 147.096L14.562 146.34C14.6647 146.723 14.842 147.031 15.094 147.264C15.3553 147.488 15.7147 147.6 16.172 147.6C16.536 147.6 16.844 147.53 17.096 147.39C17.348 147.241 17.5487 147.031 17.698 146.76C17.8567 146.489 17.9687 146.158 18.034 145.766C18.1087 145.374 18.146 144.935 18.146 144.45C18.146 144.413 18.146 144.38 18.146 144.352C18.146 144.324 18.146 144.291 18.146 144.254H18.09C17.9873 144.581 17.81 144.851 17.558 145.066C17.3153 145.271 17.0353 145.425 16.718 145.528C16.4007 145.621 16.074 145.668 15.738 145.668C15.15 145.668 14.6273 145.551 14.17 145.318C13.722 145.075 13.3673 144.739 13.106 144.31C12.8447 143.871 12.714 143.363 12.714 142.784C12.714 142.131 12.854 141.571 13.134 141.104C13.414 140.628 13.806 140.264 14.31 140.012C14.8233 139.751 15.4253 139.62 16.116 139.62ZM16.13 141.188C15.6353 141.188 15.248 141.328 14.968 141.608C14.688 141.879 14.548 142.261 14.548 142.756C14.548 143.195 14.6927 143.54 14.982 143.792C15.2713 144.035 15.654 144.156 16.13 144.156C16.438 144.156 16.7087 144.095 16.942 143.974C17.1847 143.853 17.3713 143.68 17.502 143.456C17.6327 143.232 17.698 142.975 17.698 142.686C17.698 142.378 17.6327 142.112 17.502 141.888C17.3713 141.664 17.1847 141.491 16.942 141.37C16.7087 141.249 16.438 141.188 16.13 141.188ZM25.0926 149.14C23.9073 149.14 22.9926 148.739 22.3486 147.936C21.714 147.133 21.3966 145.948 21.3966 144.38C21.3966 142.812 21.714 141.627 22.3486 140.824C22.9926 140.021 23.9073 139.62 25.0926 139.62C26.278 139.62 27.188 140.021 27.8226 140.824C28.4666 141.627 28.7886 142.812 28.7886 144.38C28.7886 145.948 28.4666 147.133 27.8226 147.936C27.188 148.739 26.278 149.14 25.0926 149.14ZM25.0926 147.586C25.494 147.586 25.8206 147.474 26.0726 147.25C26.334 147.017 26.53 146.667 26.6606 146.2C26.7913 145.724 26.8566 145.117 26.8566 144.38C26.8566 143.643 26.7913 143.041 26.6606 142.574C26.53 142.098 26.334 141.748 26.0726 141.524C25.8206 141.291 25.494 141.174 25.0926 141.174C24.6913 141.174 24.36 141.291 24.0986 141.524C23.8373 141.748 23.6413 142.098 23.5106 142.574C23.3893 143.041 23.3286 143.643 23.3286 144.38C23.3286 145.117 23.3893 145.724 23.5106 146.2C23.6413 146.667 23.8373 147.017 24.0986 147.25C24.36 147.474 24.6913 147.586 25.0926 147.586Z" fill="white"/>
</g>
<g clip-path="url(#clip0_560_7476)">
<path d="M158.208 12.5352C157.552 12.5454 156.909 12.7287 156.346 13.0667C155.782 13.4047 155.318 13.8854 155 14.4602C154.682 13.8854 154.218 13.4047 153.655 13.0667C153.091 12.7287 152.449 12.5454 151.792 12.5352C150.745 12.5807 149.758 13.0387 149.048 13.8093C148.337 14.5799 147.961 15.6003 148 16.6477C148 20.5997 154.391 25.1643 154.663 25.358L155 25.5966L155.337 25.358C155.609 25.1655 162 20.5997 162 16.6477C162.04 15.6003 161.663 14.5799 160.953 13.8093C160.242 13.0387 159.256 12.5807 158.208 12.5352Z" fill="#F1C40F"/>
</g>
<defs>
<linearGradient id="paint0_linear_560_7476" x1="86.5" y1="60" x2="86.5" y2="184" gradientUnits="userSpaceOnUse">
<stop stop-color="#6054FF"/>
<stop offset="1" stop-color="#887FFF"/>
</linearGradient>
<clipPath id="clip0_560_7476">
<rect width="14" height="14" fill="white" transform="translate(148 12)"/>
</clipPath>
</defs>
</svg>
