<svg width="49" height="50" viewBox="0 0 49 50" fill="none" xmlns="http://www.w3.org/2000/svg">
<path fill-rule="evenodd" clip-rule="evenodd" d="M23.3 2.65C24.0111 2.11667 24.9889 2.11667 25.7 2.65L32.7 7.9C33.2036 8.27771 33.5 8.87049 33.5 9.5V19C33.5 20.1046 32.6046 21 31.5 21H17.5C16.3954 21 15.5 20.1046 15.5 19V9.5C15.5 8.87049 15.7964 8.27771 16.3 7.9L23.3 2.65ZM24.5 4.25L17.5 9.5V19H31.5V9.5L24.5 4.25Z" fill="white"/>
<path d="M14.7658 35.01V42H14.0658V38.73H10.2758V42H9.57578V35.01H10.2758V38.15H14.0658V35.01H14.7658ZM19.3529 42.08C18.8396 42.08 18.3762 41.9667 17.9629 41.74C17.5562 41.5067 17.2329 41.18 16.9929 40.76C16.7596 40.3333 16.6429 39.8367 16.6429 39.27C16.6429 38.7033 16.7629 38.21 17.0029 37.79C17.2429 37.3633 17.5696 37.0367 17.9829 36.81C18.3962 36.5767 18.8596 36.46 19.3729 36.46C19.8862 36.46 20.3496 36.5767 20.7629 36.81C21.1829 37.0367 21.5096 37.3633 21.7429 37.79C21.9829 38.21 22.1029 38.7033 22.1029 39.27C22.1029 39.83 21.9829 40.3233 21.7429 40.75C21.5029 41.1767 21.1729 41.5067 20.7529 41.74C20.3329 41.9667 19.8662 42.08 19.3529 42.08ZM19.3529 41.47C19.7129 41.47 20.0462 41.39 20.3529 41.23C20.6596 41.0633 20.9062 40.8167 21.0929 40.49C21.2862 40.1567 21.3829 39.75 21.3829 39.27C21.3829 38.79 21.2896 38.3867 21.1029 38.06C20.9162 37.7267 20.6696 37.48 20.3629 37.32C20.0562 37.1533 19.7229 37.07 19.3629 37.07C19.0029 37.07 18.6696 37.1533 18.3629 37.32C18.0562 37.48 17.8096 37.7267 17.6229 38.06C17.4429 38.3867 17.3529 38.79 17.3529 39.27C17.3529 39.75 17.4429 40.1567 17.6229 40.49C17.8096 40.8167 18.0529 41.0633 18.3529 41.23C18.6596 41.39 18.9929 41.47 19.3529 41.47ZM30.4789 36.44C31.1189 36.44 31.6389 36.6433 32.0389 37.05C32.4456 37.45 32.6489 38.0333 32.6489 38.8V42H31.9589V38.88C31.9589 38.2867 31.8156 37.8333 31.5289 37.52C31.2422 37.2067 30.8522 37.05 30.3589 37.05C29.8456 37.05 29.4356 37.22 29.1289 37.56C28.8222 37.9 28.6689 38.3933 28.6689 39.04V42H27.9789V38.88C27.9789 38.2867 27.8356 37.8333 27.5489 37.52C27.2622 37.2067 26.8689 37.05 26.3689 37.05C25.8556 37.05 25.4456 37.22 25.1389 37.56C24.8322 37.9 24.6789 38.3933 24.6789 39.04V42H23.9789V36.54H24.6789V37.48C24.8522 37.14 25.0989 36.8833 25.4189 36.71C25.7389 36.53 26.0956 36.44 26.4889 36.44C26.9622 36.44 27.3756 36.5533 27.7289 36.78C28.0889 37.0067 28.3489 37.34 28.5089 37.78C28.6556 37.3467 28.9056 37.0167 29.2589 36.79C29.6189 36.5567 30.0256 36.44 30.4789 36.44ZM39.7435 38.99C39.7435 39.23 39.7368 39.4133 39.7235 39.54H35.1935C35.2135 39.9533 35.3135 40.3067 35.4935 40.6C35.6735 40.8933 35.9102 41.1167 36.2035 41.27C36.4968 41.4167 36.8168 41.49 37.1635 41.49C37.6168 41.49 37.9968 41.38 38.3035 41.16C38.6168 40.94 38.8235 40.6433 38.9235 40.27H39.6635C39.5302 40.8033 39.2435 41.24 38.8035 41.58C38.3702 41.9133 37.8235 42.08 37.1635 42.08C36.6502 42.08 36.1902 41.9667 35.7835 41.74C35.3768 41.5067 35.0568 41.18 34.8235 40.76C34.5968 40.3333 34.4835 39.8367 34.4835 39.27C34.4835 38.7033 34.5968 38.2067 34.8235 37.78C35.0502 37.3533 35.3668 37.0267 35.7735 36.8C36.1802 36.5733 36.6435 36.46 37.1635 36.46C37.6835 36.46 38.1368 36.5733 38.5235 36.8C38.9168 37.0267 39.2168 37.3333 39.4235 37.72C39.6368 38.1 39.7435 38.5233 39.7435 38.99ZM39.0335 38.97C39.0402 38.5633 38.9568 38.2167 38.7835 37.93C38.6168 37.6433 38.3868 37.4267 38.0935 37.28C37.8002 37.1333 37.4802 37.06 37.1335 37.06C36.6135 37.06 36.1702 37.2267 35.8035 37.56C35.4368 37.8933 35.2335 38.3633 35.1935 38.97H39.0335Z" fill="white"/>
</svg>
