<svg width="46" height="46" viewBox="0 0 46 46" fill="none" xmlns="http://www.w3.org/2000/svg">
<rect width="46" height="46" rx="14" fill="#ECF0F1"/>
<path fill-rule="evenodd" clip-rule="evenodd" d="M21 13C20.4477 13 20 13.4477 20 14C20 14.5523 20.4477 15 21 15H25C25.5523 15 26 14.5523 26 14C26 13.4477 25.5523 13 25 13H21ZM17 14H18V15C18 16.1046 18.8954 17 20 17H26C27.1046 17 28 16.1046 28 15V14H29C30.1046 14 31 14.8954 31 16V27C31 30.3137 28.3137 33 25 33H17C15.8954 33 15 32.1046 15 31V16C15 14.8954 15.8954 14 17 14ZM19 22C19 21.4477 19.4477 21 20 21H26C26.5523 21 27 21.4477 27 22C27 22.5523 26.5523 23 26 23H20C19.4477 23 19 22.5523 19 22ZM20 25C19.4477 25 19 25.4477 19 26C19 26.5523 19.4477 27 20 27H23C23.5523 27 24 26.5523 24 26C24 25.4477 23.5523 25 23 25H20Z" fill="#111111"/>
</svg>
