<svg width="46" height="46" viewBox="0 0 46 46" fill="none" xmlns="http://www.w3.org/2000/svg">
<rect width="46" height="46" rx="14" fill="#ECF0F1"/>
<path fill-rule="evenodd" clip-rule="evenodd" d="M23 13C17.4772 13 13 17.4772 13 23C13 28.5228 17.4772 33 23 33C28.5228 33 33 28.5228 33 23C33 17.4772 28.5228 13 23 13ZM24 18C24 17.4477 23.5523 17 23 17C22.4477 17 22 17.4477 22 18V23C22 23.2652 22.1054 23.5196 22.2929 23.7071L25.2929 26.7071C25.6834 27.0976 26.3166 27.0976 26.7071 26.7071C27.0976 26.3166 27.0976 25.6834 26.7071 25.2929L24 22.5858V18Z" fill="#111111"/>
</svg>
