<svg width="26" height="26" viewBox="0 0 26 26" fill="none" xmlns="http://www.w3.org/2000/svg">
<path fill-rule="evenodd" clip-rule="evenodd" d="M11.3751 2.1665C6.28946 2.1665 2.16675 6.28922 2.16675 11.3748C2.16675 16.4605 6.28946 20.5832 11.3751 20.5832C13.5275 20.5832 15.5075 19.8446 17.0754 18.6072L21.0321 22.5638C21.4552 22.9869 22.1411 22.9869 22.5642 22.5638C22.9873 22.1408 22.9873 21.4548 22.5642 21.0318L18.6075 17.0751C19.8449 15.5072 20.5834 13.5273 20.5834 11.3748C20.5834 6.28922 16.4607 2.1665 11.3751 2.1665ZM4.33341 11.3748C4.33341 7.48583 7.48608 4.33317 11.3751 4.33317C15.2641 4.33317 18.4167 7.48583 18.4167 11.3748C18.4167 15.2638 15.2641 18.4165 11.3751 18.4165C7.48608 18.4165 4.33341 15.2638 4.33341 11.3748Z" fill="#111111"/>
</svg>
