<svg width="237" height="167" viewBox="0 0 237 167" fill="none" xmlns="http://www.w3.org/2000/svg">
<path d="M0 158.274V129.779H10.9202C13.719 129.779 15.8626 130.565 17.351 132.144C18.8393 133.723 19.5754 135.877 19.5754 138.597C19.5754 141.318 18.8312 143.472 17.351 145.051C15.8707 146.63 13.7271 147.416 10.9202 147.416H5.39538V158.274H0ZM5.39538 143.051H9.8039C11.2599 143.051 12.3034 142.768 12.9343 142.193C13.5653 141.593 13.8808 140.654 13.8808 139.375V137.82C13.8808 136.541 13.5653 135.617 12.9343 135.043C12.3034 134.443 11.2599 134.144 9.8039 134.144H5.39538V143.043V143.051ZM24.5016 154.153H29.7757V141.334H24.5016V137.213H35.0497V142.97H35.3814C35.5755 142.233 35.8344 141.529 36.166 140.848C36.5219 140.144 36.9587 139.529 37.4845 139.01C38.0346 138.468 38.6898 138.031 39.4583 137.707C40.2267 137.383 41.1489 137.213 42.2166 137.213H44.522V142.112H40.1539C38.5604 142.112 37.3147 142.573 36.4006 143.496C35.4865 144.419 35.0417 145.602 35.0417 147.051V154.153H42.4188V158.274H24.4936V154.153H24.5016ZM66.3057 158.274C65.0115 158.274 64.0084 157.959 63.2966 157.335C62.609 156.679 62.1965 155.78 62.059 154.639H61.8568C61.4685 155.942 60.7162 156.963 59.5918 157.699C58.4675 158.404 57.0761 158.76 55.4341 158.76C53.2905 158.76 51.5918 158.201 50.3218 157.084C49.0599 155.967 48.429 154.42 48.429 152.428C48.429 148.185 51.5756 146.055 57.8608 146.055H61.6141V144.671C61.6141 143.334 61.2824 142.33 60.6272 141.65C59.972 140.97 58.8962 140.63 57.4159 140.63C56.0731 140.63 54.9811 140.889 54.1641 141.407C53.339 141.925 52.6434 142.589 52.061 143.407L49.0518 140.873C49.707 139.699 50.7667 138.719 52.2227 137.933C53.703 137.116 55.612 136.711 57.9498 136.711C60.7486 136.711 62.9326 137.367 64.5019 138.67C66.0954 139.95 66.8881 141.869 66.8881 144.428V154.347H69.4038V158.266H66.3138L66.3057 158.274ZM57.1975 155.173C58.4594 155.173 59.5029 154.89 60.3279 154.315C61.1773 153.715 61.606 152.914 61.606 151.91V149.092H57.9821C55.0943 149.092 53.6545 149.991 53.6545 151.788V152.606C53.6545 153.448 53.97 154.088 54.6009 154.525C55.2318 154.962 56.0974 155.181 57.1975 155.181V155.173ZM83.0985 158.768C80.7608 158.768 78.7466 158.412 77.0399 157.708C75.3331 156.971 74.0065 155.991 73.0439 154.768L76.1339 151.991C77.0156 152.946 78.0186 153.675 79.143 154.193C80.2997 154.711 81.6263 154.971 83.139 154.971C84.4575 154.971 85.5172 154.752 86.3099 154.315C87.1026 153.877 87.507 153.213 87.507 152.315C87.507 151.553 87.232 151.035 86.682 150.76C86.1562 150.485 85.4605 150.282 84.5788 150.144L81.1572 149.61C80.2755 149.472 79.4099 149.286 78.5606 149.035C77.7355 148.76 76.9913 148.395 76.3361 147.934C75.7052 147.472 75.1956 146.889 74.8154 146.177C74.4271 145.44 74.2411 144.557 74.2411 143.521C74.2411 141.318 75.0661 139.626 76.7163 138.46C78.3907 137.286 80.688 136.703 83.6001 136.703C85.6628 136.703 87.4019 136.986 88.8337 137.561C90.2897 138.136 91.4869 138.937 92.4171 139.966L89.6587 142.986C89.0521 142.33 88.2432 141.764 87.2239 141.27C86.2371 140.751 84.9752 140.492 83.4302 140.492C80.7365 140.492 79.3938 141.326 79.3938 142.986C79.3938 143.747 79.6688 144.282 80.2188 144.581C80.7689 144.857 81.4807 145.059 82.3624 145.197L85.7436 145.731C86.6496 145.869 87.5151 146.071 88.3402 146.347C89.1896 146.59 89.9338 146.946 90.5647 147.407C91.2199 147.869 91.7457 148.452 92.134 149.165C92.5222 149.877 92.7083 150.744 92.7083 151.78C92.7083 153.958 91.8589 155.675 90.1522 156.922C88.4777 158.145 86.1319 158.76 83.1066 158.76L83.0985 158.768ZM98.6133 129.561H103.887V140.921H104.09C104.559 139.78 105.271 138.8 106.233 137.982C107.22 137.14 108.579 136.719 110.31 136.719C112.397 136.719 114.088 137.415 115.382 138.8C116.7 140.16 117.356 142.12 117.356 144.679V158.274H112.082V145.415C112.082 142.371 110.747 140.84 108.086 140.84C107.535 140.84 107.018 140.905 106.516 141.043C106.023 141.18 105.57 141.399 105.157 141.699C104.769 141.974 104.454 142.314 104.211 142.719C103.992 143.124 103.879 143.618 103.879 144.193V158.274H98.6052V129.561H98.6133ZM140.425 158.274C139.131 158.274 138.128 157.959 137.416 157.335C136.729 156.679 136.316 155.78 136.179 154.639H135.976C135.588 155.942 134.836 156.963 133.712 157.699C132.587 158.404 131.196 158.76 129.554 158.76C127.41 158.76 125.712 158.201 124.442 157.084C123.18 155.967 122.549 154.42 122.549 152.428C122.549 148.185 125.695 146.055 131.98 146.055H135.734V144.671C135.734 143.334 135.402 142.33 134.747 141.65C134.092 140.97 133.016 140.63 131.536 140.63C130.193 140.63 129.101 140.889 128.284 141.407C127.459 141.925 126.763 142.589 126.181 143.407L123.172 140.873C123.827 139.699 124.886 138.719 126.342 137.933C127.823 137.116 129.732 136.711 132.069 136.711C134.868 136.711 137.052 137.367 138.622 138.67C140.215 139.95 141.008 141.869 141.008 144.428V154.347H143.524V158.266H140.434L140.425 158.274ZM131.317 155.173C132.579 155.173 133.623 154.89 134.448 154.315C135.297 153.715 135.726 152.914 135.726 151.91V149.092H132.102C129.214 149.092 127.774 149.991 127.774 151.788V152.606C127.774 153.448 128.09 154.088 128.721 154.525C129.352 154.962 130.217 155.181 131.317 155.181V155.173Z" fill="white"/>
<path d="M161.028 158.768C159.572 158.768 158.366 158.509 157.404 157.991C156.474 157.448 155.81 156.817 155.43 156.112H155.309V158.274H153.497V152.112H155.309V153.213C155.309 154.493 155.778 155.489 156.708 156.193C157.638 156.898 158.957 157.254 160.664 157.254C162.371 157.254 163.73 156.93 164.66 156.274C165.59 155.618 166.059 154.614 166.059 153.254C166.059 152.08 165.703 151.173 164.991 150.517C164.304 149.861 163.277 149.391 161.901 149.092L159.717 148.646C157.792 148.209 156.296 147.529 155.228 146.606C154.184 145.65 153.659 144.282 153.659 142.484C153.659 140.686 154.29 139.31 155.552 138.362C156.846 137.383 158.52 136.889 160.575 136.889C162.007 136.889 163.139 137.124 163.996 137.585C164.878 138.047 165.469 138.622 165.768 139.302H165.93V137.383H167.742V143.545H165.93V142.071C165.93 140.848 165.493 139.933 164.611 139.334C163.762 138.711 162.508 138.395 160.858 138.395C159.321 138.395 158.108 138.711 157.234 139.334C156.352 139.933 155.916 140.857 155.916 142.112C155.916 143.367 156.271 144.233 156.983 144.889C157.727 145.513 158.755 145.974 160.073 146.274L162.176 146.719C164.183 147.156 165.703 147.837 166.747 148.76C167.814 149.683 168.356 151.043 168.356 152.841C168.356 154.639 167.709 156.015 166.423 157.124C165.129 158.21 163.333 158.76 161.028 158.76V158.768ZM175.426 166.931C174.189 166.931 173.299 166.655 172.749 166.113C172.199 165.594 171.924 164.971 171.924 164.234C171.924 163.659 172.077 163.198 172.377 162.849C172.676 162.525 173.121 162.355 173.695 162.355C174.189 162.355 174.577 162.501 174.852 162.801C175.151 163.1 175.305 163.505 175.305 164.024C175.305 164.404 175.192 164.72 174.973 164.963C174.779 165.206 174.545 165.384 174.27 165.497V165.578C174.569 165.684 174.973 165.74 175.467 165.74C176.348 165.74 177.125 165.4 177.813 164.72C178.524 164.04 179.171 162.922 179.746 161.376L180.692 158.841L172.943 138.792H170.84V137.367H179.042V138.792H175.54L181.8 155.61H181.962L188.102 138.792H184.599V137.367H191.976V138.792H189.873L181.097 161.61C180.466 163.27 179.681 164.566 178.751 165.489C177.845 166.445 176.729 166.914 175.41 166.914L175.426 166.931ZM194.152 156.849H197.364V139.334L194.152 138.929V137.869L199.718 136.97V140.646H199.879C200.041 140.184 200.292 139.731 200.624 139.302C200.979 138.84 201.416 138.427 201.942 138.079C202.468 137.723 203.066 137.439 203.754 137.221C204.442 137.002 205.226 136.897 206.1 136.897C208.599 136.897 210.395 137.553 211.495 138.856C212.62 140.16 213.186 142.136 213.186 144.776V156.857H216.397V158.282H207.58V156.857H210.791V145.019C210.791 142.816 210.338 141.197 209.433 140.16C208.527 139.124 207.151 138.605 205.315 138.605C204.603 138.605 203.916 138.703 203.252 138.889C202.589 139.075 202.007 139.383 201.481 139.788C200.955 140.168 200.535 140.662 200.203 141.261C199.904 141.836 199.75 142.517 199.75 143.302V156.857H202.961V158.282H194.144V156.857L194.152 156.849ZM229.259 158.768C227.803 158.768 226.5 158.525 225.344 158.031C224.187 157.513 223.2 156.792 222.375 155.869C221.582 154.914 220.959 153.772 220.523 152.436C220.11 151.076 219.908 149.537 219.908 147.82C219.908 146.104 220.126 144.565 220.563 143.205C221.032 141.844 221.679 140.703 222.496 139.771C223.346 138.816 224.349 138.095 225.505 137.609C226.686 137.115 227.989 136.873 229.42 136.873C230.407 136.873 231.313 136.978 232.138 137.196C232.963 137.415 233.675 137.715 234.282 138.095C234.889 138.476 235.35 138.929 235.681 139.439C236.013 139.958 236.175 140.516 236.175 141.116C236.175 141.772 235.997 142.29 235.641 142.67C235.309 143.027 234.832 143.205 234.201 143.205C233.57 143.205 233.085 143.027 232.761 142.67C232.43 142.29 232.268 141.828 232.268 141.286C232.268 140.824 232.389 140.427 232.64 140.103C232.915 139.747 233.271 139.464 233.708 139.245V139.164C232.802 138.622 231.459 138.346 229.671 138.346C228.571 138.346 227.584 138.541 226.703 138.921C225.821 139.302 225.069 139.844 224.438 140.557C223.831 141.237 223.37 142.071 223.038 143.051C222.707 144.006 222.545 145.051 222.545 146.193V148.808C222.545 150.031 222.707 151.148 223.038 152.153C223.37 153.132 223.831 153.975 224.438 154.687C225.069 155.392 225.813 155.942 226.662 156.323C227.544 156.703 228.506 156.898 229.55 156.898C230.432 156.898 231.2 156.801 231.855 156.614C232.543 156.396 233.133 156.112 233.627 155.756C234.153 155.4 234.589 154.979 234.945 154.493C235.334 153.999 235.673 153.489 235.973 152.938L237 153.553C236.725 154.209 236.369 154.849 235.932 155.473C235.52 156.096 235.002 156.655 234.363 157.149C233.732 157.643 232.988 158.031 232.138 158.331C231.313 158.631 230.351 158.776 229.251 158.776L229.259 158.768Z" fill="white"/>
<path d="M118.504 32.7464C127.537 32.7464 134.86 25.4158 134.86 16.3732C134.86 7.33053 127.537 0 118.504 0C109.47 0 102.148 7.33053 102.148 16.3732C102.148 25.4158 109.47 32.7464 118.504 32.7464Z" fill="#9500FF"/>
<path fill-rule="evenodd" clip-rule="evenodd" d="M79.2556 82.4899V109.681H157.751V82.4899C157.751 61.3392 140.182 44.1968 118.504 44.1968C96.8249 44.1968 79.2556 61.3392 79.2556 82.4899ZM127.466 74.5787C124.32 76.6354 122.427 80.0931 122.427 83.7936V99.519C122.427 101.454 120.817 103.017 118.835 103.017C116.853 103.017 115.244 101.446 115.244 99.519V84.2309C115.244 80.5304 113.359 77.0808 110.204 75.0159L95.0696 65.1046C93.4194 64.0276 92.9665 61.8575 94.0504 60.238C95.1505 58.5861 97.4316 58.1326 99.1141 59.2339L112.154 67.7687C115.988 70.2789 121.003 70.2789 124.837 67.7687L137.877 59.2339C139.559 58.1326 141.832 58.5861 142.94 60.238C144.024 61.8575 143.571 64.0276 141.921 65.1046L127.458 74.5787H127.466Z" fill="white"/>
</svg>
