<svg width="45" height="50" viewBox="0 0 45 50" fill="none" xmlns="http://www.w3.org/2000/svg">
<path fill-rule="evenodd" clip-rule="evenodd" d="M18.5 5C18.5 3.89543 19.3954 3 20.5 3H24.5C25.6046 3 26.5 3.89543 26.5 5V8H30.5C31.6046 8 32.5 8.89543 32.5 10V19C32.5 20.1046 31.6046 21 30.5 21H14.5C13.3954 21 12.5 20.1046 12.5 19V13C12.5 11.8954 13.3954 11 14.5 11H18.5V5ZM24.5 19V5H20.5V19H24.5ZM26.5 19H30.5V10H26.5V19ZM18.5 13V19H14.5V13H18.5Z" fill="white"/>
<path d="M11.8714 42.07C11.4114 42.07 11.0047 41.99 10.6514 41.83C10.3047 41.67 10.0314 41.4467 9.83137 41.16C9.63137 40.8733 9.5247 40.5533 9.51137 40.2H10.2514C10.2847 40.54 10.4347 40.84 10.7014 41.1C10.968 41.3533 11.358 41.48 11.8714 41.48C12.3447 41.48 12.718 41.36 12.9914 41.12C13.2714 40.8733 13.4114 40.5633 13.4114 40.19C13.4114 39.89 13.3347 39.65 13.1814 39.47C13.028 39.2833 12.838 39.1467 12.6114 39.06C12.3847 38.9667 12.0714 38.8667 11.6714 38.76C11.2047 38.6333 10.8347 38.51 10.5614 38.39C10.288 38.27 10.0547 38.0833 9.86137 37.83C9.66803 37.5767 9.57137 37.2333 9.57137 36.8C9.57137 36.44 9.6647 36.12 9.85137 35.84C10.038 35.5533 10.3014 35.33 10.6414 35.17C10.9814 35.01 11.3714 34.93 11.8114 34.93C12.458 34.93 12.978 35.09 13.3714 35.41C13.7714 35.7233 14.0014 36.13 14.0614 36.63H13.3014C13.2547 36.3433 13.098 36.09 12.8314 35.87C12.5647 35.6433 12.2047 35.53 11.7514 35.53C11.3314 35.53 10.9814 35.6433 10.7014 35.87C10.4214 36.09 10.2814 36.3933 10.2814 36.78C10.2814 37.0733 10.358 37.31 10.5114 37.49C10.6647 37.67 10.8547 37.8067 11.0814 37.9C11.3147 37.9933 11.628 38.0933 12.0214 38.2C12.4747 38.3267 12.8414 38.4533 13.1214 38.58C13.4014 38.7 13.638 38.8867 13.8314 39.14C14.0247 39.3933 14.1214 39.7333 14.1214 40.16C14.1214 40.4867 14.0347 40.7967 13.8614 41.09C13.688 41.3833 13.4314 41.62 13.0914 41.8C12.7514 41.98 12.3447 42.07 11.8714 42.07ZM16.984 37.13V40.52C16.984 40.8533 17.0474 41.0833 17.174 41.21C17.3007 41.3367 17.524 41.4 17.844 41.4H18.484V42H17.734C17.2407 42 16.874 41.8867 16.634 41.66C16.394 41.4267 16.274 41.0467 16.274 40.52V37.13H15.514V36.54H16.274V35.17H16.984V36.54H18.484V37.13H16.984ZM19.9185 39.26C19.9185 38.7 20.0285 38.21 20.2485 37.79C20.4751 37.3633 20.7851 37.0367 21.1785 36.81C21.5785 36.5767 22.0285 36.46 22.5285 36.46C23.0485 36.46 23.4951 36.58 23.8685 36.82C24.2485 37.06 24.5218 37.3667 24.6885 37.74V36.54H25.3885V42H24.6885V40.79C24.5151 41.1633 24.2385 41.4733 23.8585 41.72C23.4851 41.96 23.0385 42.08 22.5185 42.08C22.0251 42.08 21.5785 41.9633 21.1785 41.73C20.7851 41.4967 20.4751 41.1667 20.2485 40.74C20.0285 40.3133 19.9185 39.82 19.9185 39.26ZM24.6885 39.27C24.6885 38.83 24.5985 38.4433 24.4185 38.11C24.2385 37.7767 23.9918 37.52 23.6785 37.34C23.3718 37.16 23.0318 37.07 22.6585 37.07C22.2718 37.07 21.9251 37.1567 21.6185 37.33C21.3118 37.5033 21.0685 37.7567 20.8885 38.09C20.7151 38.4167 20.6285 38.8067 20.6285 39.26C20.6285 39.7067 20.7151 40.1 20.8885 40.44C21.0685 40.7733 21.3118 41.03 21.6185 41.21C21.9251 41.3833 22.2718 41.47 22.6585 41.47C23.0318 41.47 23.3718 41.38 23.6785 41.2C23.9918 41.02 24.2385 40.7633 24.4185 40.43C24.5985 40.0967 24.6885 39.71 24.6885 39.27ZM28.4965 37.13V40.52C28.4965 40.8533 28.5599 41.0833 28.6865 41.21C28.8132 41.3367 29.0365 41.4 29.3565 41.4H29.9965V42H29.2465C28.7532 42 28.3865 41.8867 28.1465 41.66C27.9065 41.4267 27.7865 41.0467 27.7865 40.52V37.13H27.0265V36.54H27.7865V35.17H28.4965V36.54H29.9965V37.13H28.4965ZM33.631 42.08C33.0043 42.08 32.491 41.9367 32.091 41.65C31.6976 41.3567 31.4776 40.96 31.431 40.46H32.151C32.1843 40.7667 32.3276 41.0167 32.581 41.21C32.841 41.3967 33.1876 41.49 33.621 41.49C34.001 41.49 34.2976 41.4 34.511 41.22C34.731 41.04 34.841 40.8167 34.841 40.55C34.841 40.3633 34.781 40.21 34.661 40.09C34.541 39.97 34.3876 39.8767 34.201 39.81C34.021 39.7367 33.7743 39.66 33.461 39.58C33.0543 39.4733 32.7243 39.3667 32.471 39.26C32.2176 39.1533 32.001 38.9967 31.821 38.79C31.6476 38.5767 31.561 38.2933 31.561 37.94C31.561 37.6733 31.641 37.4267 31.801 37.2C31.961 36.9733 32.1876 36.7933 32.481 36.66C32.7743 36.5267 33.1076 36.46 33.481 36.46C34.0676 36.46 34.541 36.61 34.901 36.91C35.261 37.2033 35.4543 37.61 35.481 38.13H34.781C34.761 37.81 34.6343 37.5533 34.401 37.36C34.1743 37.16 33.861 37.06 33.461 37.06C33.1076 37.06 32.821 37.1433 32.601 37.31C32.381 37.4767 32.271 37.6833 32.271 37.93C32.271 38.1433 32.3343 38.32 32.461 38.46C32.5943 38.5933 32.7576 38.7 32.951 38.78C33.1443 38.8533 33.4043 38.9367 33.731 39.03C34.1243 39.1367 34.4376 39.24 34.671 39.34C34.9043 39.44 35.1043 39.5867 35.271 39.78C35.4376 39.9733 35.5243 40.23 35.531 40.55C35.531 40.8433 35.451 41.1067 35.291 41.34C35.131 41.5667 34.9076 41.7467 34.621 41.88C34.3343 42.0133 34.0043 42.08 33.631 42.08Z" fill="white"/>
</svg>
