<svg width="45" height="50" viewBox="0 0 45 50" fill="none" xmlns="http://www.w3.org/2000/svg">
<path d="M21.5 3C20.3954 3 19.5 3.89543 19.5 5V21H25.5V5C25.5 3.89543 24.6046 3 23.5 3H21.5Z" fill="white"/>
<path d="M27.5 8H30.5C31.6046 8 32.5 8.89543 32.5 10V19C32.5 20.1046 31.6046 21 30.5 21H27.5V8Z" fill="white"/>
<path d="M12.5 13C12.5 11.8954 13.3954 11 14.5 11H17.5V21H14.5C13.3954 21 12.5 20.1046 12.5 19V13Z" fill="white"/>
<path d="M11.5421 42.07C11.0755 42.07 10.6555 41.99 10.2821 41.83C9.90882 41.6633 9.61548 41.43 9.40215 41.13C9.18882 40.83 9.08215 40.48 9.08215 40.08H10.3021C10.3288 40.38 10.4455 40.6267 10.6521 40.82C10.8655 41.0133 11.1621 41.11 11.5421 41.11C11.9355 41.11 12.2421 41.0167 12.4621 40.83C12.6821 40.6367 12.7921 40.39 12.7921 40.09C12.7921 39.8567 12.7221 39.6667 12.5821 39.52C12.4488 39.3733 12.2788 39.26 12.0721 39.18C11.8721 39.1 11.5921 39.0133 11.2321 38.92C10.7788 38.8 10.4088 38.68 10.1221 38.56C9.84215 38.4333 9.60215 38.24 9.40215 37.98C9.20215 37.72 9.10215 37.3733 9.10215 36.94C9.10215 36.54 9.20215 36.19 9.40215 35.89C9.60215 35.59 9.88215 35.36 10.2421 35.2C10.6021 35.04 11.0188 34.96 11.4921 34.96C12.1655 34.96 12.7155 35.13 13.1421 35.47C13.5755 35.8033 13.8155 36.2633 13.8621 36.85H12.6021C12.5821 36.5967 12.4621 36.38 12.2421 36.2C12.0221 36.02 11.7321 35.93 11.3721 35.93C11.0455 35.93 10.7788 36.0133 10.5721 36.18C10.3655 36.3467 10.2621 36.5867 10.2621 36.9C10.2621 37.1133 10.3255 37.29 10.4521 37.43C10.5855 37.5633 10.7521 37.67 10.9521 37.75C11.1521 37.83 11.4255 37.9167 11.7721 38.01C12.2321 38.1367 12.6055 38.2633 12.8921 38.39C13.1855 38.5167 13.4321 38.7133 13.6321 38.98C13.8388 39.24 13.9421 39.59 13.9421 40.03C13.9421 40.3833 13.8455 40.7167 13.6521 41.03C13.4655 41.3433 13.1888 41.5967 12.8221 41.79C12.4621 41.9767 12.0355 42.07 11.5421 42.07ZM17.2173 37.42V40.47C17.2173 40.6767 17.264 40.8267 17.3573 40.92C17.4573 41.0067 17.624 41.05 17.8573 41.05H18.5573V42H17.6573C17.144 42 16.7506 41.88 16.4773 41.64C16.204 41.4 16.0673 41.01 16.0673 40.47V37.42H15.4173V36.49H16.0673V35.12H17.2173V36.49H18.5573V37.42H17.2173ZM19.828 39.22C19.828 38.6667 19.9413 38.1767 20.168 37.75C20.4013 37.3233 20.7147 36.9933 21.108 36.76C21.508 36.52 21.948 36.4 22.428 36.4C22.8613 36.4 23.238 36.4867 23.558 36.66C23.8847 36.8267 24.1447 37.0367 24.338 37.29V36.49H25.488V42H24.338V41.18C24.1447 41.44 23.8813 41.6567 23.548 41.83C23.2147 42.0033 22.8347 42.09 22.408 42.09C21.9347 42.09 21.5013 41.97 21.108 41.73C20.7147 41.4833 20.4013 41.1433 20.168 40.71C19.9413 40.27 19.828 39.7733 19.828 39.22ZM24.338 39.24C24.338 38.86 24.258 38.53 24.098 38.25C23.9447 37.97 23.7413 37.7567 23.488 37.61C23.2347 37.4633 22.9613 37.39 22.668 37.39C22.3747 37.39 22.1013 37.4633 21.848 37.61C21.5947 37.75 21.388 37.96 21.228 38.24C21.0747 38.5133 20.998 38.84 20.998 39.22C20.998 39.6 21.0747 39.9333 21.228 40.22C21.388 40.5067 21.5947 40.7267 21.848 40.88C22.108 41.0267 22.3813 41.1 22.668 41.1C22.9613 41.1 23.2347 41.0267 23.488 40.88C23.7413 40.7333 23.9447 40.52 24.098 40.24C24.258 39.9533 24.338 39.62 24.338 39.24ZM28.9154 37.42V40.47C28.9154 40.6767 28.962 40.8267 29.0554 40.92C29.1554 41.0067 29.322 41.05 29.5554 41.05H30.2554V42H29.3554C28.842 42 28.4487 41.88 28.1754 41.64C27.902 41.4 27.7654 41.01 27.7654 40.47V37.42H27.1154V36.49H27.7654V35.12H28.9154V36.49H30.2554V37.42H28.9154ZM33.9061 42.09C33.4727 42.09 33.0827 42.0133 32.7361 41.86C32.3961 41.7 32.1261 41.4867 31.9261 41.22C31.7261 40.9467 31.6194 40.6433 31.6061 40.31H32.7861C32.8061 40.5433 32.9161 40.74 33.1161 40.9C33.3227 41.0533 33.5794 41.13 33.8861 41.13C34.2061 41.13 34.4527 41.07 34.6261 40.95C34.8061 40.8233 34.8961 40.6633 34.8961 40.47C34.8961 40.2633 34.7961 40.11 34.5961 40.01C34.4027 39.91 34.0927 39.8 33.6661 39.68C33.2527 39.5667 32.9161 39.4567 32.6561 39.35C32.3961 39.2433 32.1694 39.08 31.9761 38.86C31.7894 38.64 31.6961 38.35 31.6961 37.99C31.6961 37.6967 31.7827 37.43 31.9561 37.19C32.1294 36.9433 32.3761 36.75 32.6961 36.61C33.0227 36.47 33.3961 36.4 33.8161 36.4C34.4427 36.4 34.9461 36.56 35.3261 36.88C35.7127 37.1933 35.9194 37.6233 35.9461 38.17H34.8061C34.7861 37.9233 34.6861 37.7267 34.5061 37.58C34.3261 37.4333 34.0827 37.36 33.7761 37.36C33.4761 37.36 33.2461 37.4167 33.0861 37.53C32.9261 37.6433 32.8461 37.7933 32.8461 37.98C32.8461 38.1267 32.8994 38.25 33.0061 38.35C33.1127 38.45 33.2427 38.53 33.3961 38.59C33.5494 38.6433 33.7761 38.7133 34.0761 38.8C34.4761 38.9067 34.8027 39.0167 35.0561 39.13C35.3161 39.2367 35.5394 39.3967 35.7261 39.61C35.9127 39.8233 36.0094 40.1067 36.0161 40.46C36.0161 40.7733 35.9294 41.0533 35.7561 41.3C35.5827 41.5467 35.3361 41.74 35.0161 41.88C34.7027 42.02 34.3327 42.09 33.9061 42.09Z" fill="white"/>
</svg>
