<svg width="63" height="50" viewBox="0 0 63 50" fill="none" xmlns="http://www.w3.org/2000/svg">
<path d="M32.5 7C32.5 6.44772 32.0523 6 31.5 6C30.9477 6 30.5 6.44772 30.5 7V12C30.5 12.2652 30.6054 12.5196 30.7929 12.7071L33.7929 15.7071C34.1834 16.0976 34.8166 16.0976 35.2071 15.7071C35.5976 15.3166 35.5976 14.6834 35.2071 14.2929L32.5 11.5858V7Z" fill="white"/>
<path fill-rule="evenodd" clip-rule="evenodd" d="M31.5 2C25.9772 2 21.5 6.47715 21.5 12C21.5 17.5228 25.9772 22 31.5 22C37.0228 22 41.5 17.5228 41.5 12C41.5 6.47715 37.0228 2 31.5 2ZM23.5 12C23.5 7.58172 27.0817 4 31.5 4C35.9183 4 39.5 7.58172 39.5 12C39.5 16.4183 35.9183 20 31.5 20C27.0817 20 23.5 16.4183 23.5 12Z" fill="white"/>
<path d="M13.7675 35.01V35.59H11.8275V42H11.1275V35.59H9.17754V35.01H13.7675ZM15.8229 35.51C15.6829 35.51 15.5629 35.46 15.4629 35.36C15.3629 35.26 15.3129 35.1367 15.3129 34.99C15.3129 34.8433 15.3629 34.7233 15.4629 34.63C15.5629 34.53 15.6829 34.48 15.8229 34.48C15.9629 34.48 16.0829 34.53 16.1829 34.63C16.2829 34.7233 16.3329 34.8433 16.3329 34.99C16.3329 35.1367 16.2829 35.26 16.1829 35.36C16.0829 35.46 15.9629 35.51 15.8229 35.51ZM16.1729 36.54V42H15.4729V36.54H16.1729ZM24.858 36.44C25.498 36.44 26.018 36.6433 26.418 37.05C26.8247 37.45 27.028 38.0333 27.028 38.8V42H26.338V38.88C26.338 38.2867 26.1947 37.8333 25.908 37.52C25.6213 37.2067 25.2313 37.05 24.738 37.05C24.2247 37.05 23.8147 37.22 23.508 37.56C23.2013 37.9 23.048 38.3933 23.048 39.04V42H22.358V38.88C22.358 38.2867 22.2147 37.8333 21.928 37.52C21.6413 37.2067 21.248 37.05 20.748 37.05C20.2347 37.05 19.8247 37.22 19.518 37.56C19.2113 37.9 19.058 38.3933 19.058 39.04V42H18.358V36.54H19.058V37.48C19.2313 37.14 19.478 36.8833 19.798 36.71C20.118 36.53 20.4747 36.44 20.868 36.44C21.3413 36.44 21.7547 36.5533 22.108 36.78C22.468 37.0067 22.728 37.34 22.888 37.78C23.0347 37.3467 23.2847 37.0167 23.638 36.79C23.998 36.5567 24.4047 36.44 24.858 36.44ZM34.1226 38.99C34.1226 39.23 34.1159 39.4133 34.1026 39.54H29.5726C29.5926 39.9533 29.6926 40.3067 29.8726 40.6C30.0526 40.8933 30.2893 41.1167 30.5826 41.27C30.8759 41.4167 31.1959 41.49 31.5426 41.49C31.9959 41.49 32.3759 41.38 32.6826 41.16C32.9959 40.94 33.2026 40.6433 33.3026 40.27H34.0426C33.9093 40.8033 33.6226 41.24 33.1826 41.58C32.7493 41.9133 32.2026 42.08 31.5426 42.08C31.0293 42.08 30.5693 41.9667 30.1626 41.74C29.7559 41.5067 29.4359 41.18 29.2026 40.76C28.9759 40.3333 28.8626 39.8367 28.8626 39.27C28.8626 38.7033 28.9759 38.2067 29.2026 37.78C29.4293 37.3533 29.7459 37.0267 30.1526 36.8C30.5593 36.5733 31.0226 36.46 31.5426 36.46C32.0626 36.46 32.5159 36.5733 32.9026 36.8C33.2959 37.0267 33.5959 37.3333 33.8026 37.72C34.0159 38.1 34.1226 38.5233 34.1226 38.99ZM33.4126 38.97C33.4193 38.5633 33.3359 38.2167 33.1626 37.93C32.9959 37.6433 32.7659 37.4267 32.4726 37.28C32.1793 37.1333 31.8593 37.06 31.5126 37.06C30.9926 37.06 30.5493 37.2267 30.1826 37.56C29.8159 37.8933 29.6126 38.3633 29.5726 38.97H33.4126ZM36.7033 34.6V42H36.0033V34.6H36.7033ZM39.2385 35.51C39.0985 35.51 38.9785 35.46 38.8785 35.36C38.7785 35.26 38.7285 35.1367 38.7285 34.99C38.7285 34.8433 38.7785 34.7233 38.8785 34.63C38.9785 34.53 39.0985 34.48 39.2385 34.48C39.3785 34.48 39.4985 34.53 39.5985 34.63C39.6985 34.7233 39.7485 34.8433 39.7485 34.99C39.7485 35.1367 39.6985 35.26 39.5985 35.36C39.4985 35.46 39.3785 35.51 39.2385 35.51ZM39.5885 36.54V42H38.8885V36.54H39.5885ZM44.3336 36.44C44.987 36.44 45.5203 36.6433 45.9336 37.05C46.347 37.45 46.5536 38.0333 46.5536 38.8V42H45.8636V38.88C45.8636 38.2867 45.7136 37.8333 45.4136 37.52C45.1203 37.2067 44.717 37.05 44.2036 37.05C43.677 37.05 43.257 37.2167 42.9436 37.55C42.6303 37.8833 42.4736 38.3733 42.4736 39.02V42H41.7736V36.54H42.4736V37.47C42.647 37.1367 42.897 36.8833 43.2236 36.71C43.5503 36.53 43.9203 36.44 44.3336 36.44ZM53.6418 38.99C53.6418 39.23 53.6351 39.4133 53.6218 39.54H49.0918C49.1118 39.9533 49.2118 40.3067 49.3918 40.6C49.5718 40.8933 49.8084 41.1167 50.1018 41.27C50.3951 41.4167 50.7151 41.49 51.0618 41.49C51.5151 41.49 51.8951 41.38 52.2018 41.16C52.5151 40.94 52.7218 40.6433 52.8218 40.27H53.5618C53.4284 40.8033 53.1418 41.24 52.7018 41.58C52.2684 41.9133 51.7218 42.08 51.0618 42.08C50.5484 42.08 50.0884 41.9667 49.6818 41.74C49.2751 41.5067 48.9551 41.18 48.7218 40.76C48.4951 40.3333 48.3818 39.8367 48.3818 39.27C48.3818 38.7033 48.4951 38.2067 48.7218 37.78C48.9484 37.3533 49.2651 37.0267 49.6718 36.8C50.0784 36.5733 50.5418 36.46 51.0618 36.46C51.5818 36.46 52.0351 36.5733 52.4218 36.8C52.8151 37.0267 53.1151 37.3333 53.3218 37.72C53.5351 38.1 53.6418 38.5233 53.6418 38.99ZM52.9318 38.97C52.9384 38.5633 52.8551 38.2167 52.6818 37.93C52.5151 37.6433 52.2851 37.4267 51.9918 37.28C51.6984 37.1333 51.3784 37.06 51.0318 37.06C50.5118 37.06 50.0684 37.2267 49.7018 37.56C49.3351 37.8933 49.1318 38.3633 49.0918 38.97H52.9318Z" fill="white"/>
</svg>
