<svg width="51" height="50" viewBox="0 0 51 50" fill="none" xmlns="http://www.w3.org/2000/svg">
<path d="M26 22C24.0222 22 22.0888 21.4135 20.4443 20.3147C18.7998 19.2159 17.5181 17.6541 16.7612 15.8268C16.0043 13.9996 15.8063 11.9889 16.1922 10.0491C16.578 8.10929 17.5304 6.32746 18.9289 4.92894C20.3275 3.53041 22.1093 2.578 24.0491 2.19215C25.9889 1.8063 27.9996 2.00433 29.8268 2.76121C31.6541 3.51809 33.2159 4.79981 34.3147 6.4443C35.4135 8.08879 36 10.0222 36 12C35.9971 14.6513 34.9426 17.1932 33.0679 19.0679C31.1932 20.9426 28.6513 21.9971 26 22ZM26 3.66667C24.3518 3.66667 22.7407 4.15541 21.3703 5.07109C19.9998 5.98677 18.9317 7.28826 18.301 8.81098C17.6703 10.3337 17.5053 12.0092 17.8268 13.6258C18.1483 15.2423 18.942 16.7271 20.1074 17.8926C21.2729 19.058 22.7577 19.8517 24.3743 20.1732C25.9908 20.4948 27.6663 20.3297 29.189 19.699C30.7118 19.0683 32.0132 18.0002 32.9289 16.6298C33.8446 15.2593 34.3333 13.6482 34.3333 12C34.3309 9.79061 33.4522 7.67241 31.8899 6.11013C30.3276 4.54785 28.2094 3.6691 26 3.66667ZM29.3417 17C29.4705 16.9971 29.597 16.9649 29.7116 16.906C29.8262 16.847 29.9259 16.7628 30.0032 16.6596C30.0805 16.5565 30.1333 16.4372 30.1577 16.3106C30.1822 16.1841 30.1775 16.0537 30.1442 15.9292C29.8489 15.0548 29.2952 14.2907 28.5563 13.7379C27.8173 13.1852 26.928 12.8697 26.0058 12.8333C25.0847 12.8732 24.197 13.19 23.4587 13.7423C22.7204 14.2946 22.1659 15.0568 21.8675 15.9292C21.8305 16.0536 21.8231 16.1849 21.8458 16.3126C21.8686 16.4404 21.9208 16.5611 21.9984 16.6651C22.076 16.7691 22.1769 16.8535 22.2929 16.9117C22.4089 16.9698 22.5369 17.0001 22.6667 17H29.3417ZM21 10.3333C21 11.1667 21.7458 11.1667 22.6667 11.1667C23.5875 11.1667 24.3333 11.1667 24.3333 10.3333C24.3333 9.89131 24.1577 9.46739 23.8452 9.15483C23.5326 8.84227 23.1087 8.66667 22.6667 8.66667C22.2246 8.66667 21.8007 8.84227 21.4882 9.15483C21.1756 9.46739 21 9.89131 21 10.3333ZM27.6667 10.3333C27.6667 11.1667 28.4125 11.1667 29.3333 11.1667C30.2542 11.1667 31 11.1667 31 10.3333C31 9.89131 30.8244 9.46739 30.5118 9.15483C30.1993 8.84227 29.7754 8.66667 29.3333 8.66667C28.8913 8.66667 28.4674 8.84227 28.1548 9.15483C27.8423 9.46739 27.6667 9.89131 27.6667 10.3333Z" fill="white"/>
<path d="M8.64719 35.1V42H7.94719V36.49L5.48719 42H4.97719L2.51719 36.51V42H1.81719V35.1H2.55719L5.22719 41.08L7.89719 35.1H8.64719ZM14.9252 35.01V35.59H12.9852V42H12.2852V35.59H10.3352V35.01H14.9252ZM17.3305 37.51C17.4838 37.17 17.7171 36.9067 18.0305 36.72C18.3505 36.5333 18.7405 36.44 19.2005 36.44V37.17H19.0105C18.5038 37.17 18.0971 37.3067 17.7905 37.58C17.4838 37.8533 17.3305 38.31 17.3305 38.95V42H16.6305V36.54H17.3305V37.51ZM20.5335 39.26C20.5335 38.7 20.6435 38.21 20.8635 37.79C21.0902 37.3633 21.4002 37.0367 21.7935 36.81C22.1935 36.5767 22.6435 36.46 23.1435 36.46C23.6635 36.46 24.1102 36.58 24.4835 36.82C24.8635 37.06 25.1368 37.3667 25.3035 37.74V36.54H26.0035V42H25.3035V40.79C25.1302 41.1633 24.8535 41.4733 24.4735 41.72C24.1002 41.96 23.6535 42.08 23.1335 42.08C22.6402 42.08 22.1935 41.9633 21.7935 41.73C21.4002 41.4967 21.0902 41.1667 20.8635 40.74C20.6435 40.3133 20.5335 39.82 20.5335 39.26ZM25.3035 39.27C25.3035 38.83 25.2135 38.4433 25.0335 38.11C24.8535 37.7767 24.6068 37.52 24.2935 37.34C23.9868 37.16 23.6468 37.07 23.2735 37.07C22.8868 37.07 22.5402 37.1567 22.2335 37.33C21.9268 37.5033 21.6835 37.7567 21.5035 38.09C21.3302 38.4167 21.2435 38.8067 21.2435 39.26C21.2435 39.7067 21.3302 40.1 21.5035 40.44C21.6835 40.7733 21.9268 41.03 22.2335 41.21C22.5402 41.3833 22.8868 41.47 23.2735 41.47C23.6468 41.47 23.9868 41.38 24.2935 41.2C24.6068 41.02 24.8535 40.7633 25.0335 40.43C25.2135 40.0967 25.3035 39.71 25.3035 39.27ZM27.8816 39.27C27.8816 38.7033 27.9949 38.21 28.2216 37.79C28.4482 37.3633 28.7616 37.0367 29.1616 36.81C29.5616 36.5767 30.0182 36.46 30.5316 36.46C31.2049 36.46 31.7582 36.6267 32.1916 36.96C32.6316 37.2933 32.9149 37.7467 33.0416 38.32H32.2916C32.1982 37.9267 31.9949 37.62 31.6816 37.4C31.3749 37.1733 30.9916 37.06 30.5316 37.06C30.1649 37.06 29.8349 37.1433 29.5416 37.31C29.2482 37.4767 29.0149 37.7267 28.8416 38.06C28.6749 38.3867 28.5916 38.79 28.5916 39.27C28.5916 39.75 28.6749 40.1567 28.8416 40.49C29.0149 40.8233 29.2482 41.0733 29.5416 41.24C29.8349 41.4067 30.1649 41.49 30.5316 41.49C30.9916 41.49 31.3749 41.38 31.6816 41.16C31.9949 40.9333 32.1982 40.62 32.2916 40.22H33.0416C32.9149 40.78 32.6316 41.23 32.1916 41.57C31.7516 41.91 31.1982 42.08 30.5316 42.08C30.0182 42.08 29.5616 41.9667 29.1616 41.74C28.7616 41.5067 28.4482 41.18 28.2216 40.76C27.9949 40.3333 27.8816 39.8367 27.8816 39.27ZM37.8844 42L35.6344 39.55V42H34.9344V34.6H35.6344V38.98L37.8344 36.54H38.8144L36.2244 39.26L38.8344 42H37.8844ZM45.2791 38.99C45.2791 39.23 45.2724 39.4133 45.2591 39.54H40.7291C40.7491 39.9533 40.8491 40.3067 41.0291 40.6C41.2091 40.8933 41.4457 41.1167 41.7391 41.27C42.0324 41.4167 42.3524 41.49 42.6991 41.49C43.1524 41.49 43.5324 41.38 43.8391 41.16C44.1524 40.94 44.3591 40.6433 44.4591 40.27H45.1991C45.0657 40.8033 44.7791 41.24 44.3391 41.58C43.9057 41.9133 43.3591 42.08 42.6991 42.08C42.1857 42.08 41.7257 41.9667 41.3191 41.74C40.9124 41.5067 40.5924 41.18 40.3591 40.76C40.1324 40.3333 40.0191 39.8367 40.0191 39.27C40.0191 38.7033 40.1324 38.2067 40.3591 37.78C40.5857 37.3533 40.9024 37.0267 41.3091 36.8C41.7157 36.5733 42.1791 36.46 42.6991 36.46C43.2191 36.46 43.6724 36.5733 44.0591 36.8C44.4524 37.0267 44.7524 37.3333 44.9591 37.72C45.1724 38.1 45.2791 38.5233 45.2791 38.99ZM44.5691 38.97C44.5757 38.5633 44.4924 38.2167 44.3191 37.93C44.1524 37.6433 43.9224 37.4267 43.6291 37.28C43.3357 37.1333 43.0157 37.06 42.6691 37.06C42.1491 37.06 41.7057 37.2267 41.3391 37.56C40.9724 37.8933 40.7691 38.3633 40.7291 38.97H44.5691ZM47.8598 37.51C48.0131 37.17 48.2464 36.9067 48.5598 36.72C48.8798 36.5333 49.2698 36.44 49.7298 36.44V37.17H49.5398C49.0331 37.17 48.6264 37.3067 48.3198 37.58C48.0131 37.8533 47.8598 38.31 47.8598 38.95V42H47.1598V36.54H47.8598V37.51Z" fill="white"/>
</svg>
